<?xml version="1.0" encoding="UTF-8" standalone="no"?>
<svg
   xmlns:dc="http://purl.org/dc/elements/1.1/"
   xmlns:cc="http://creativecommons.org/ns#"
   xmlns:rdf="http://www.w3.org/1999/02/22-rdf-syntax-ns#"
   xmlns:svg="http://www.w3.org/2000/svg"
   xmlns="http://www.w3.org/2000/svg"
   xmlns:sodipodi="http://sodipodi.sourceforge.net/DTD/sodipodi-0.dtd"
   xmlns:inkscape="http://www.inkscape.org/namespaces/inkscape"
   version="1.1"
   id="svg2"
   xml:space="preserve"
   width="3733.3333"
   height="2666.6667"
   viewBox="0 0 3733.3333 2666.6667"
   sodipodi:docname="Videoconference with happy people on desktop.eps"><metadata
     id="metadata8"><rdf:RDF><cc:Work
         rdf:about=""><dc:format>image/svg+xml</dc:format><dc:type
           rdf:resource="http://purl.org/dc/dcmitype/StillImage" /></cc:Work></rdf:RDF></metadata><defs
     id="defs6" /><sodipodi:namedview
     pagecolor="#ffffff"
     bordercolor="#666666"
     borderopacity="1"
     objecttolerance="10"
     gridtolerance="10"
     guidetolerance="10"
     inkscape:pageopacity="0"
     inkscape:pageshadow="2"
     inkscape:window-width="640"
     inkscape:window-height="480"
     id="namedview4" /><g
     id="g10"
     inkscape:groupmode="layer"
     inkscape:label="ink_ext_XXXXXX"
     transform="matrix(1.3333333,0,0,-1.3333333,0,2666.6667)"><g
       id="g12"
       transform="scale(0.1)"><path
         d="M 0,0 H 28000 V 20000 H 0 Z"
         style="fill:#ffffff;fill-opacity:1;fill-rule:nonzero;stroke:none"
         id="path14" /><path
         d="m 2407.63,1375.7 c 0,0 -2715.185,6387.4 -880.42,9021 1834.76,2633.6 5938.83,911.6 7821.87,3595.9 1883.02,2684.2 5166.32,5115.3 8980.72,4456.9 3814.3,-658.4 9222.1,-4203.7 7290.7,-12053.9 0,0 -1467,-4912.7 -3751.2,-5014 -2284.2,-101.3 -19461.67,-5.9 -19461.67,-5.9"
         style="fill:#feefdc;fill-opacity:1;fill-rule:nonzero;stroke:none"
         id="path16" /><path
         d="m 15599,14871 h -1727.3 c -180.6,0 -327,-146.5 -327,-327.1 v -559.1 c 0,-180.6 146.4,-327 327,-327 H 15599 c 180.6,0 327,146.4 327,327 v 559.1 c 0,180.6 -146.4,327.1 -327,327.1"
         style="fill:#f99247;fill-opacity:1;fill-rule:nonzero;stroke:none"
         id="path18" /><path
         d="m 15066.9,14871 h -1727.2 c -180.6,0 -327,-146.5 -327,-327.1 v -559.1 c 0,-180.6 146.4,-327 327,-327 h 1727.2 c 180.7,0 327.1,146.4 327.1,327 v 559.1 c 0,180.6 -146.4,327.1 -327.1,327.1"
         style="fill:#fec786;fill-opacity:1;fill-rule:nonzero;stroke:none"
         id="path20" /><path
         d="m 14378,14548.8 c 0,-88.8 -72,-160.8 -160.8,-160.8 -88.7,0 -160.7,72 -160.7,160.8 0,88.7 72,160.7 160.7,160.7 88.8,0 160.8,-72 160.8,-160.7"
         style="fill:#e2f2f1;fill-opacity:1;fill-rule:nonzero;stroke:none"
         id="path22" /><path
         d="m 10809.3,1828.9 345.4,176.2 c 0,0 366.4,38.2 371.4,0 4.9,-38.2 -202,-323.9 -231.6,-323.9 -29.5,0 -453.2,0 -453.2,0 l -32,147.7"
         style="fill:#f99247;fill-opacity:1;fill-rule:nonzero;stroke:none"
         id="path24" /><path
         d="m 18437.6,1375.7 334.9,170.9 c 0,0 -131.3,170.7 -167.5,170.7 -36.1,0 -318.5,-157.6 -318.5,-157.6 l 151.1,-184"
         style="fill:#f99247;fill-opacity:1;fill-rule:nonzero;stroke:none"
         id="path26" /><path
         d="m 18310.3,2058.9 h -6977.2 c -255.3,0 -462.2,-206.9 -462.2,-462.2 v -50.1 h 7901.6 v 50.1 c 0,255.3 -206.9,462.2 -462.2,462.2"
         style="fill:#f99247;fill-opacity:1;fill-rule:nonzero;stroke:none"
         id="path28" /><path
         d="m 16684.1,1546.6 h -2857.6 l -1024.7,5986.9 h 2857.7 l 1024.6,-5986.9"
         style="fill:#f99247;fill-opacity:1;fill-rule:nonzero;stroke:none"
         id="path30" /><path
         d="M 22546,14264.4 H 6644.37 c -389.68,0 -705.58,-315.9 -705.58,-705.6 V 5357.5 4043.2 c 0,-273.3 180.7,-494.9 403.59,-494.9 H 22848 c 222.9,0 403.6,221.6 403.6,494.9 v 1314.3 8201.3 c 0,389.7 -315.9,705.6 -705.6,705.6"
         style="fill:#f99247;fill-opacity:1;fill-rule:nonzero;stroke:none"
         id="path32" /><path
         d="m 16388.5,1546.6 h -2857.6 l -1024.6,5986.9 h 2857.6 l 1024.6,-5986.9"
         style="fill:#f7ab48;fill-opacity:1;fill-rule:nonzero;stroke:none"
         id="path34" /><path
         d="m 22846.3,5357.5 v 8201.3 c 0,389.7 -315.9,705.6 -705.6,705.6 H 6239.11 c -389.68,0 -705.58,-315.9 -705.58,-705.6 V 5357.5 H 22846.3"
         style="fill:#f7ab48;fill-opacity:1;fill-rule:nonzero;stroke:none"
         id="path36" /><path
         d="M 5533.53,5357.5 V 4043.2 c 0,-273.3 180.7,-494.9 403.59,-494.9 H 22442.7 c 222.9,0 403.6,221.6 403.6,494.9 V 5357.5 H 5533.53"
         style="fill:#fec786;fill-opacity:1;fill-rule:nonzero;stroke:none"
         id="path38" /><path
         d="m 22441.1,5713.6 v 7823.3 c 0,205.1 -172.3,371.3 -384.7,371.3 H 6323.49 c -212.46,0 -384.7,-166.2 -384.7,-371.3 V 5713.6 H 22441.1"
         style="fill:#e2f2f1;fill-opacity:1;fill-rule:nonzero;stroke:none"
         id="path40" /><path
         d="M 22477.1,10124.7 H 15743 v 3763.7 l 6390.3,12.4 307.8,-175 36,-3601.1"
         style="fill:#fec786;fill-opacity:1;fill-rule:nonzero;stroke:none"
         id="path42" /><path
         d="M 22442.7,3531.6 H 5937.12 c -231.71,0 -420.21,229.5 -420.21,511.6 v 9515.6 c 0,398.2 323.98,722.2 722.19,722.2 v -33.3 c -379.89,0 -688.94,-309 -688.94,-688.9 V 4043.2 c 0,-263.7 173.59,-478.3 386.96,-478.3 H 22442.7 v -33.3"
         style="fill:#21111d;fill-opacity:1;fill-rule:nonzero;stroke:none"
         id="path44" /><path
         d="m 21741.8,4443.2 -27,19.4 394.1,548.5 27,-19.4 -394.1,-548.5"
         style="fill:#21111d;fill-opacity:1;fill-rule:nonzero;stroke:none"
         id="path46" /><path
         d="m 21741.7,4183.7 -26.8,19.7 394.1,533.6 26.8,-19.7 -394.1,-533.6"
         style="fill:#21111d;fill-opacity:1;fill-rule:nonzero;stroke:none"
         id="path48" /><path
         d="M 22457.7,5697 H 5938.79 v 33.2 H 22424.4 v 7806.7 c 0,195.6 -165.1,354.7 -368,354.7 v 33.2 c 221.2,0 401.3,-174 401.3,-387.9 V 5697"
         style="fill:#21111d;fill-opacity:1;fill-rule:nonzero;stroke:none"
         id="path50" /><path
         d="m 18437.6,1375.7 c 0,283 -229.4,512.4 -512.4,512.4 h -6877 c -282.9,0 -512.3,-229.4 -512.3,-512.4 h 7901.7"
         style="fill:#f7ab48;fill-opacity:1;fill-rule:nonzero;stroke:none"
         id="path52" /><path
         d="m 13512.6,3068.7 -28.8,16.5 196,343 28.9,-16.5 -196.1,-343"
         style="fill:#21111d;fill-opacity:1;fill-rule:nonzero;stroke:none"
         id="path54" /><path
         d="m 13545.4,2871.5 -28.7,16.8 177.3,302.1 28.7,-16.8 -177.3,-302.1"
         style="fill:#21111d;fill-opacity:1;fill-rule:nonzero;stroke:none"
         id="path56" /><path
         d="M 15679,10124.7 H 8944.99 v 3822.8 H 15679 v -3822.8"
         style="fill:#7fc6a6;fill-opacity:1;fill-rule:nonzero;stroke:none"
         id="path58" /><path
         d="M 15720.7,6137.8 H 9013.76 v 3922.9 H 15720.7 V 6137.8"
         style="fill:#ffcaba;fill-opacity:1;fill-rule:nonzero;stroke:none"
         id="path60" /><path
         d="M 8910.25,13908.2 H 6323.49 c -212.46,0 -384.7,-166.2 -384.7,-371.3 V 5713.6 h 2971.46 v 8194.6"
         style="fill:#61a3c5;fill-opacity:1;fill-rule:nonzero;stroke:none"
         id="path62" /><path
         d="M 5988.67,5763.5 H 22391.2 v 7773.4 c 0,177.2 -150.2,321.4 -334.8,321.4 H 6323.49 c -184.62,0 -334.82,-144.2 -334.82,-321.4 z M 22490.9,5663.7 H 5888.92 v 7873.2 c 0,232.3 194.94,421.2 434.57,421.2 H 22056.4 c 239.6,0 434.5,-188.9 434.5,-421.2 V 5663.7"
         style="fill:#21111d;fill-opacity:1;fill-rule:nonzero;stroke:none"
         id="path64" /><path
         d="m 12526.7,13235 c 16.6,113.1 123.5,205.8 237.8,206.3 12,0 24.2,-0.9 35.4,-5.2 12.7,-5 23.3,-14.2 35.6,-20.2 30,-14.7 70.1,-10.8 92,-35.9 23.8,-27.2 10.7,-69.3 17.7,-104.7 5.3,-27 22.6,-49.9 32.5,-75.5 19.4,-50.3 8.8,-108.2 -15.8,-156.1 -24.7,-47.9 -62.2,-87.8 -99.2,-127 -30.3,-32.1 -61.9,-65.2 -102.9,-81.4 -80.4,-31.9 -139.9,27.6 -165.4,97.9 -34.1,93.9 -82.8,199.8 -67.7,301.8"
         style="fill:#fec786;fill-opacity:1;fill-rule:nonzero;stroke:none"
         id="path66" /><path
         d="m 12056.7,12728.9 c 0,0 -230,-660 -257.8,-715.6 -27.7,-55.5 -168.4,-311.5 -117.9,-612.9 50.5,-301.4 961.2,-408.5 961.2,-408.5 l -16.6,2068.3 c 0,0 -406.7,49.4 -568.9,-331.3"
         style="fill:#fec786;fill-opacity:1;fill-rule:nonzero;stroke:none"
         id="path68" /><path
         d="m 13185.2,12728.9 c 0,0 230,-660 257.8,-715.6 27.7,-55.5 168.4,-311.5 117.9,-612.9 -50.5,-301.4 -961.2,-408.5 -961.2,-408.5 l 16.6,2068.3 c 0,0 406.7,49.4 568.9,-331.3"
         style="fill:#fec786;fill-opacity:1;fill-rule:nonzero;stroke:none"
         id="path70" /><path
         d="m 12286.7,12514.8 523.8,442 57.5,-420.9 c 0,0 -346,-95.2 -359.2,-95.2 -13.2,0 -222.1,74.1 -222.1,74.1"
         style="fill:#fe9f73;fill-opacity:1;fill-rule:nonzero;stroke:none"
         id="path72" /><path
         d="m 14861.7,10188.8 c -199.4,465.2 -407.7,911.8 -497.8,977.8 -197,144.5 -1497.6,157.7 -1497.6,157.7 0,0 -945.8,49.2 -1445,-37.8 0,0 -551.7,-21.3 -827.6,-592.8 -70.7,-146.5 -150.5,-323.2 -230,-504.9 h 4498"
         style="fill:#febac7;fill-opacity:1;fill-rule:nonzero;stroke:none"
         id="path74" /><path
         d="m 13819.5,11281.3 c -425.9,37.9 -922.4,43 -922.4,43 0,0 -943.3,49.1 -1443.1,-37.5 152.9,-143.8 639.8,-538.2 1346.2,-497.8 522.2,29.8 845.5,291 1019.3,492.3"
         style="fill:#fe9f73;fill-opacity:1;fill-rule:nonzero;stroke:none"
         id="path76" /><path
         d="m 12928.5,11317.1 -574.3,9.9 30.9,468.9 h 484.7 l 58.7,-478.8"
         style="fill:#fe9f73;fill-opacity:1;fill-rule:nonzero;stroke:none"
         id="path78" /><path
         d="m 12372.3,11601.7 c 55.3,-46.4 130.9,-83.4 202.2,-92.7 11.8,-0.2 24,-0.3 36.4,-0.4 v 0 h 2.5 2.6 v 0 c 12.4,0.1 24.6,0.2 36.4,0.4 83.6,10.9 176.3,58.5 238.1,118.4 l -20.6,168.5 h -484.8 l -12.8,-194.2"
         style="fill:#f07162;fill-opacity:1;fill-rule:nonzero;stroke:none"
         id="path80" /><path
         d="m 12993.5,12607.1 c -23.4,46.9 -54,78.3 -84,99.2 -60.8,28 -160.3,64.3 -287.3,78.5 h -6.1 -3.6 -6.1 c -126.9,-14.2 -226.4,-50.5 -287.2,-78.5 -30,-20.9 -60.6,-52.3 -84,-99.2 -11.2,-86.6 -24.8,-246.4 -27.4,-406 -2.3,-143.5 36.3,-285.3 115.4,-401.4 59.6,-87.5 145.2,-165.9 263.8,-177.4 8.2,-0.1 16.8,-0.2 25.5,-0.2 v 0 h 1.8 1.8 v 0 c 8.8,0 17.4,0.1 25.6,0.2 118.6,11.5 204.2,89.9 263.8,177.4 79.1,116.1 117.6,257.9 115.4,401.4 -2.6,159.6 -16.2,319.4 -27.4,406"
         style="fill:#fe9f73;fill-opacity:1;fill-rule:nonzero;stroke:none"
         id="path82" /><path
         d="m 12922.1,12108 c 0,-73.7 59.7,-133.4 133.4,-133.4 73.7,0 133.4,59.7 133.4,133.4 0,73.7 -59.7,133.4 -133.4,133.4 -73.7,0 -133.4,-59.7 -133.4,-133.4"
         style="fill:#fe9f73;fill-opacity:1;fill-rule:nonzero;stroke:none"
         id="path84" /><path
         d="m 13065.4,12025.7 c 28,0 46.7,21 52.8,42 7.3,24.9 -1,49.1 -21.2,61.6 -28.8,17.9 -55,7.4 -69.2,-1.5 5.7,14.2 14.5,24.6 26.1,31 26.1,14.3 58.3,3.8 58.7,3.7 2.2,-0.7 4.6,0.5 5.4,2.7 0.7,2.3 -0.5,4.7 -2.7,5.4 -1.5,0.5 -36.2,11.8 -65.5,-4.3 -17,-9.4 -28.6,-25.8 -34.4,-49 l -3.7,-14.9 10.9,10.8 c 1.3,1.4 32.8,31.9 69.9,8.9 20.4,-12.7 22.2,-35.9 17.5,-52 -4.9,-16.8 -19.7,-36.2 -45.3,-35.9 -2.3,0.1 -4.3,-1.8 -4.3,-4.2 0,-2.3 1.8,-4.3 4.2,-4.3 h 0.8"
         style="fill:#f07162;fill-opacity:1;fill-rule:nonzero;stroke:none"
         id="path86" /><path
         d="m 12341.1,12108 c 0,-73.7 -59.7,-133.4 -133.4,-133.4 -73.7,0 -133.4,59.7 -133.4,133.4 0,73.7 59.7,133.4 133.4,133.4 73.7,0 133.4,-59.7 133.4,-133.4"
         style="fill:#fe9f73;fill-opacity:1;fill-rule:nonzero;stroke:none"
         id="path88" /><path
         d="m 12197.8,12025.7 c -28,0 -46.7,21 -52.8,42 -7.3,24.9 1.1,49.1 21.3,61.6 28.8,17.9 54.9,7.4 69.2,-1.5 -5.8,14.2 -14.5,24.6 -26.1,31 -26.2,14.3 -58.4,3.8 -58.7,3.7 -2.3,-0.7 -4.7,0.5 -5.4,2.7 -0.8,2.3 0.4,4.7 2.7,5.4 1.4,0.5 36.1,11.8 65.5,-4.3 17,-9.4 28.5,-25.8 34.3,-49 l 3.7,-14.9 -10.9,10.8 c -1.3,1.4 -32.7,31.9 -69.8,8.9 -20.5,-12.7 -22.3,-35.9 -17.6,-52 4.9,-16.8 19.7,-36.2 45.3,-35.9 2.3,0.1 4.3,-1.8 4.4,-4.2 0,-2.3 -1.9,-4.3 -4.3,-4.3 h -0.8"
         style="fill:#f07162;fill-opacity:1;fill-rule:nonzero;stroke:none"
         id="path90" /><path
         d="m 12597.3,11978.5 c 2.3,0 4.3,1.5 4.8,3.8 0.6,2.7 -1.1,5.3 -3.8,5.8 -31.4,6.8 -51.3,45.6 -57,58.2 44.7,23.9 72,54.9 81.1,92.3 14.9,61 -23.8,116.2 -25.4,118.5 -1.6,2.2 -4.7,2.7 -6.9,1.1 -2.2,-1.5 -2.7,-4.6 -1.1,-6.8 0.4,-0.5 37.7,-53.9 23.9,-110.5 -8.7,-35.6 -35.6,-65.2 -80.1,-88 l -3.9,-2 1.6,-4.1 c 0.9,-2.4 23.1,-59.1 65.8,-68.2 l 1,-0.1"
         style="fill:#f07162;fill-opacity:1;fill-rule:nonzero;stroke:none"
         id="path92" /><path
         d="m 12491.1,12192.9 c 0,-15 -12.2,-27.2 -27.2,-27.2 -15,0 -27.2,12.2 -27.2,27.2 0,15 12.2,27.3 27.2,27.3 15,0 27.2,-12.3 27.2,-27.3"
         style="fill:#000000;fill-opacity:1;fill-rule:nonzero;stroke:none"
         id="path94" /><path
         d="m 12772.1,12187.6 c 0,-15 12.2,-27.2 27.2,-27.2 15.1,0 27.3,12.2 27.3,27.2 0,15 -12.2,27.2 -27.3,27.2 -15,0 -27.2,-12.2 -27.2,-27.2"
         style="fill:#000000;fill-opacity:1;fill-rule:nonzero;stroke:none"
         id="path96" /><path
         d="m 12149.7,12236.7 c 0,0 492.5,237.9 533.1,540.8 l 100.5,145.7 -44.5,-168.1 c 0,0 135.8,-492.4 346.9,-516.5 0,0 184.5,668.8 -344.9,801.6 -529.5,132.9 -633.4,-391 -591.1,-803.5"
         style="fill:#fec786;fill-opacity:1;fill-rule:nonzero;stroke:none"
         id="path98" /><path
         d="m 11169.7,10185 -32.4,7.5 123.1,534.9 32.4,-7.5 -123.1,-534.9"
         style="fill:#21111d;fill-opacity:1;fill-rule:nonzero;stroke:none"
         id="path100" /><path
         d="m 14022.5,10185 -123.2,534.9 32.4,7.5 123.2,-534.9 -32.4,-7.5"
         style="fill:#21111d;fill-opacity:1;fill-rule:nonzero;stroke:none"
         id="path102" /><path
         d="m 12777.4,10294.3 -6.4,21.2 c 381,115.9 783.5,641.1 787.5,646.4 l 17.6,-13.4 c -4,-5.4 -410.7,-536.3 -798.7,-654.2"
         style="fill:#21111d;fill-opacity:1;fill-rule:nonzero;stroke:none"
         id="path104" /><path
         d="m 11792.7,10776.8 -216.7,142.9 12.1,18.5 216.8,-142.9 -12.2,-18.5"
         style="fill:#21111d;fill-opacity:1;fill-rule:nonzero;stroke:none"
         id="path106" /><path
         d="m 11791.6,10621.6 -157.6,133.4 14.3,16.9 157.7,-133.4 -14.4,-16.9"
         style="fill:#21111d;fill-opacity:1;fill-rule:nonzero;stroke:none"
         id="path108" /><path
         d="m 12531.8,11924.2 c 2.6,0.5 165.1,4 165.1,4 0,0 -20.6,-67.1 -80.9,-68.6 -60.4,-1.5 -84.2,64.6 -84.2,64.6"
         style="fill:#fbfdfc;fill-opacity:1;fill-rule:nonzero;stroke:none"
         id="path110" /><path
         d="m 12911.7,12245.9 c -2.5,0 -5,0.9 -7.1,2.6 -68.7,58.3 -166.8,26.2 -167.8,25.9 -5.8,-2 -12,1.2 -14,6.9 -2,5.8 1.1,12.1 6.9,14.1 4.5,1.5 110.9,36.5 189.2,-30 4.7,-3.9 5.3,-10.9 1.3,-15.6 -2.2,-2.6 -5.3,-3.9 -8.5,-3.9"
         style="fill:#fec786;fill-opacity:1;fill-rule:nonzero;stroke:none"
         id="path112" /><path
         d="m 12356.5,12248 c -3.2,0 -6.4,1.4 -8.6,4.2 -3.9,4.7 -3.1,11.7 1.6,15.6 80,64.5 185.4,26.9 189.9,25.3 5.7,-2.1 8.7,-8.5 6.6,-14.2 -2.1,-5.8 -8.5,-8.7 -14.2,-6.6 -1,0.3 -98.3,34.8 -168.4,-21.8 -2,-1.7 -4.5,-2.5 -6.9,-2.5"
         style="fill:#fec786;fill-opacity:1;fill-rule:nonzero;stroke:none"
         id="path114" /><path
         d="m 12238.5,11978.2 c 0,0 49,-361 348.5,-355.9 l -348.5,355.9"
         style="fill:#fe9f73;fill-opacity:1;fill-rule:nonzero;stroke:none"
         id="path116" /><path
         d="m 12996.8,11988.2 c 0,0 -49.1,-371 -348.5,-365.9 l 219.7,508.6 128.8,-142.7"
         style="fill:#fe9f73;fill-opacity:1;fill-rule:nonzero;stroke:none"
         id="path118" /><path
         d="m 12960.2,12989.4 c -1.2,0 -2.3,0.2 -3.4,0.5 -228.8,73.5 -375.1,70.3 -442,61.9 -2.3,-0.3 -3.8,-0.5 -4.7,-0.5 -6.3,-0.3 -11.3,4.2 -11.7,10.3 -0.4,6.1 4.2,11.3 10.3,11.8 0.6,0 1.7,0.2 3.4,0.4 68.7,8.6 218.6,12 451.5,-62.8 5.8,-1.8 9,-8.1 7.1,-13.9 -1.5,-4.7 -5.8,-7.7 -10.5,-7.7"
         style="fill:#000000;fill-opacity:1;fill-rule:nonzero;stroke:none"
         id="path120" /><path
         d="m 12114.1,12313.6 c -4.7,0 -9.1,3 -10.6,7.7 -1.8,5.8 1.4,12.1 7.2,13.9 355.2,113.1 499.9,450.4 501.3,453.8 2.4,5.7 8.9,8.3 14.5,6 5.6,-2.4 8.3,-8.9 6,-14.5 -1.5,-3.5 -149.8,-350.1 -515,-466.4 -1.2,-0.3 -2.3,-0.5 -3.4,-0.5"
         style="fill:#000000;fill-opacity:1;fill-rule:nonzero;stroke:none"
         id="path122" /><path
         d="m 14806.3,6188.7 c -248.3,579.1 -507.5,1134.9 -619.7,1217.1 -245.2,179.9 -1864,196.3 -1864,196.3 0,0 -1177.3,61.3 -1798.7,-47.1 0,0 -686.76,-26.5 -1030.14,-737.8 -88.02,-182.3 -187.31,-402.3 -286.32,-628.5 h 5598.86"
         style="fill:#f75553;fill-opacity:1;fill-rule:nonzero;stroke:none"
         id="path124" /><path
         d="m 10210.3,6184.9 -32.4,7.5 153.3,665.8 32.4,-7.5 -153.3,-665.8"
         style="fill:#21111d;fill-opacity:1;fill-rule:nonzero;stroke:none"
         id="path126" /><path
         d="m 13769.2,6184.9 -153.3,665.8 32.4,7.5 153.3,-665.8 -32.4,-7.5"
         style="fill:#21111d;fill-opacity:1;fill-rule:nonzero;stroke:none"
         id="path128" /><path
         d="m 12026.2,7001.1 v 0 c -191.1,-1.2 -344.1,212.5 -335.4,468.7 l 22.5,666.7 h 603.4 l 40.8,-649.2 c 16.4,-260.8 -136.3,-484.9 -331.3,-486.2"
         style="fill:#fe9f73;fill-opacity:1;fill-rule:nonzero;stroke:none"
         id="path130" /><path
         d="m 11704.7,7882 c 106.7,-262.7 577.8,-241.2 626.9,17.4 l -14.9,237.1 h -603.4 l -8.6,-254.5"
         style="fill:#f07162;fill-opacity:1;fill-rule:nonzero;stroke:none"
         id="path132" /><path
         d="m 12470.6,9146.2 c -29.2,58.4 -67.3,97.4 -104.5,123.5 -75.7,34.8 -199.6,80.1 -357.6,97.6 h -7.6 -4.5 -7.6 c -158,-17.5 -281.9,-62.8 -357.6,-97.6 -37.2,-26.1 -75.3,-65.1 -104.5,-123.5 -13.9,-107.8 -30.9,-306.7 -34.1,-505.4 -2.8,-178.6 45.1,-355.1 143.6,-499.6 74.2,-108.9 180.8,-206.4 328.4,-220.8 10.3,-0.2 20.9,-0.2 31.8,-0.3 v 0 h 2.2 2.3 v 0 c 10.9,0.1 21.5,0.1 31.8,0.3 147.6,14.4 254.2,111.9 328.4,220.8 98.4,144.5 146.4,321 143.6,499.6 -3.2,198.7 -20.2,397.6 -34.1,505.4"
         style="fill:#fe9f73;fill-opacity:1;fill-rule:nonzero;stroke:none"
         id="path134" /><path
         d="m 12381.8,8525 c 0,-91.7 74.3,-166.1 166,-166.1 91.7,0 166,74.4 166,166.1 0,91.7 -74.3,166 -166,166 -91.7,0 -166,-74.3 -166,-166"
         style="fill:#fe9f73;fill-opacity:1;fill-rule:nonzero;stroke:none"
         id="path136" /><path
         d="m 12560.1,8422.5 c 34.8,0 58.1,26.2 65.8,52.4 9,30.9 -1.4,61 -26.5,76.6 -35.9,22.3 -68.4,9.3 -86.1,-1.9 7.1,17.7 18,30.6 32.4,38.6 32.6,17.8 72.7,4.8 73.1,4.6 2.8,-0.9 5.8,0.6 6.7,3.4 1,2.8 -0.5,5.8 -3.3,6.7 -1.8,0.6 -45,14.7 -81.6,-5.4 -21.1,-11.6 -35.5,-32.1 -42.7,-60.9 l -4.6,-18.5 13.5,13.4 c 1.7,1.6 40.8,39.7 87,11 25.5,-15.8 27.7,-44.7 21.9,-64.6 -6.1,-20.9 -24.6,-45.1 -56.5,-44.7 -2.8,0 -5.3,-2.3 -5.3,-5.3 -0.1,-2.9 2.3,-5.3 5.2,-5.4 h 1"
         style="fill:#f07162;fill-opacity:1;fill-rule:nonzero;stroke:none"
         id="path138" /><path
         d="m 11600.8,8525 c 0,-91.7 -74.4,-166.1 -166.1,-166.1 -91.7,0 -166,74.4 -166,166.1 0,91.7 74.3,166 166,166 91.7,0 166.1,-74.3 166.1,-166"
         style="fill:#fe9f73;fill-opacity:1;fill-rule:nonzero;stroke:none"
         id="path140" /><path
         d="m 11422.4,8422.5 c -34.8,0 -58.1,26.2 -65.8,52.4 -9,30.9 1.4,61 26.5,76.6 35.9,22.3 68.4,9.3 86.1,-1.9 -7.1,17.7 -18,30.6 -32.4,38.6 -32.6,17.8 -72.7,4.8 -73.1,4.6 -2.8,-0.9 -5.8,0.6 -6.7,3.4 -1,2.8 0.5,5.8 3.3,6.7 1.9,0.6 45,14.7 81.6,-5.4 21.1,-11.6 35.5,-32.1 42.7,-60.9 l 4.6,-18.5 -13.5,13.4 c -1.7,1.6 -40.8,39.7 -87,11 -25.5,-15.8 -27.7,-44.7 -21.9,-64.6 6.2,-20.9 24.6,-45.1 56.5,-44.7 2.8,0 5.3,-2.3 5.4,-5.3 0,-2.9 -2.4,-5.3 -5.3,-5.4 h -1"
         style="fill:#f07162;fill-opacity:1;fill-rule:nonzero;stroke:none"
         id="path142" /><path
         d="m 11845.3,8630.7 c 0,-18.8 -15.2,-33.9 -33.9,-33.9 -18.7,0 -33.9,15.1 -33.9,33.9 0,18.7 15.2,33.9 33.9,33.9 18.7,0 33.9,-15.2 33.9,-33.9"
         style="fill:#000000;fill-opacity:1;fill-rule:nonzero;stroke:none"
         id="path144" /><path
         d="m 12195,8624.1 c 0,-18.8 15.2,-33.9 33.9,-33.9 18.7,0 33.9,15.1 33.9,33.9 0,18.7 -15.2,33.9 -33.9,33.9 -18.7,0 -33.9,-15.2 -33.9,-33.9"
         style="fill:#000000;fill-opacity:1;fill-rule:nonzero;stroke:none"
         id="path146" /><path
         d="m 12368.8,8682.8 c -6.3,0 -12.6,2.2 -17.8,6.6 -79.3,67.3 -194.3,30 -195.5,29.6 -14.4,-4.8 -30.1,2.9 -34.9,17.3 -4.9,14.5 2.8,30.1 17.2,35 5.9,2 145.4,48 248.9,-39.8 11.6,-9.9 13,-27.3 3.2,-38.9 -5.5,-6.4 -13.2,-9.8 -21.1,-9.8"
         style="fill:#000000;fill-opacity:1;fill-rule:nonzero;stroke:none"
         id="path148" /><path
         d="m 11677.7,8685.5 c -8,0 -16,3.5 -21.5,10.2 -9.6,11.9 -7.7,29.3 4.1,38.8 105.6,85.3 244,35.9 249.8,33.8 14.3,-5.3 21.6,-21.1 16.4,-35.4 -5.2,-14.3 -21.1,-21.6 -35.3,-16.4 -1.2,0.4 -115.2,40.5 -196.2,-24.9 -5.1,-4.1 -11.2,-6.1 -17.3,-6.1"
         style="fill:#000000;fill-opacity:1;fill-rule:nonzero;stroke:none"
         id="path150" /><path
         d="m 11530.8,8363.4 c 0,0 61.1,-449.3 433.8,-443 l -433.8,443"
         style="fill:#fe9f73;fill-opacity:1;fill-rule:nonzero;stroke:none"
         id="path152" /><path
         d="m 12474.7,8375.9 c 0,0 -61.1,-461.8 -433.8,-455.5 l 273.5,633.1 160.3,-177.6"
         style="fill:#fe9f73;fill-opacity:1;fill-rule:nonzero;stroke:none"
         id="path154" /><path
         d="m 12301.2,8409.4 -268.5,-17.1 -359.9,17.1 c -69.5,0 -125.8,56.3 -125.8,125.8 v 479.2 c 0,0 346.8,-79.3 537.8,106.3 l 89.9,130.8 -28,-151.3 c 0,0 -16.9,-192.1 293.7,-237.1 l -13.5,-333 c -2.7,-67.5 -58.2,-120.7 -125.7,-120.7 z m 131.3,977 -433.7,43.1 v 1.8 l -9,-0.9 -9,0.9 v -1.8 l -433.8,-43.1 c 0,0 -116.3,0 -112.2,-196.3 2.8,-135.2 29.2,-610.5 45.3,-892.7 7.8,-137.4 71.5,-265.5 176.4,-354.6 2.3,-2 4.7,-4.1 7,-6.1 188.1,-159.9 464.5,-159.9 652.5,0 2.4,2 4.7,4.1 7.1,6.1 104.8,89.1 168.5,217.2 176.4,354.6 16.1,282.2 42.4,757.5 45.2,892.7 4.1,196.3 -112.2,196.3 -112.2,196.3"
         style="fill:#000000;fill-opacity:1;fill-rule:nonzero;stroke:none"
         id="path156" /><path
         d="m 12058.5,8383.9 -0.8,0.1 -127.7,11.8 28.4,307 c 0.4,4.6 4.5,7.9 9,7.5 4.6,-0.4 8,-4.4 7.5,-9 l -26.8,-290.5 111.1,-10.3 c 4.6,-0.4 8,-4.4 7.5,-9 -0.4,-4.3 -4,-7.6 -8.2,-7.6"
         style="fill:#f07162;fill-opacity:1;fill-rule:nonzero;stroke:none"
         id="path158" /><path
         d="m 12228.9,9406.6 c -74.6,18.6 -546.8,229.1 -779.8,163.7 -233,-65.4 -69.5,-735.9 4.2,-787 73.7,-51.1 56.8,451.8 63.3,455.9 6.5,4.1 448,-28.6 448,-28.6 l 264.3,196"
         style="fill:#000000;fill-opacity:1;fill-rule:nonzero;stroke:none"
         id="path160" /><path
         d="m 12146.7,9392.5 c 13.7,2 209.1,38.8 335.7,-2.2 139,-44.9 142,-361.6 103.2,-437.3 -38.9,-75.6 -64.4,-264.1 -64.4,-264.1 0,0 -108.6,313.2 -131.5,386.8 -22.9,73.6 -243,316.8 -243,316.8"
         style="fill:#000000;fill-opacity:1;fill-rule:nonzero;stroke:none"
         id="path162" /><path
         d="m 11891,8302.1 c 3.2,0.6 205.4,5 205.4,5 0,0 -25.5,-83.6 -100.6,-85.4 -75.2,-1.9 -104.8,80.4 -104.8,80.4"
         style="fill:#fbfdfc;fill-opacity:1;fill-rule:nonzero;stroke:none"
         id="path164" /><path
         d="m 11989.3,6887.4 c -406.4,11.5 -429.9,563.4 -430.1,568.9 l 33.3,1.2 c 0.1,-5.3 22.6,-526.2 397.7,-536.9 l -0.9,-33.2"
         style="fill:#21111d;fill-opacity:1;fill-rule:nonzero;stroke:none"
         id="path166" /><path
         d="M 9038.33,5713.6 H 8910.24 V 13881 h 128.09 V 5713.6"
         style="fill:#21111d;fill-opacity:1;fill-rule:nonzero;stroke:none"
         id="path168" /><path
         d="m 15615,13908.2 h 128 V 5668.1 h -128 v 8240.1"
         style="fill:#21111d;fill-opacity:1;fill-rule:nonzero;stroke:none"
         id="path170" /><path
         d="m 20601,8543.3 c 0,0 21.9,-349.5 194.7,-503.8 172.8,-154.3 599,-327.1 595.8,-740.7 -3.3,-413.5 -818.8,-574 -1009.8,-567.8 -190.9,6.2 -482.2,-603 -541.8,124.4 -59.6,727.4 -390.5,639.9 -112.1,924.2 278.5,284.4 364.6,258 509.5,471.9 144.9,213.9 363.7,291.8 363.7,291.8"
         style="fill:#49263e;fill-opacity:1;fill-rule:nonzero;stroke:none"
         id="path172" /><path
         d="m 18791.3,8514.1 -0.7,-1064.8 233.2,-576.3 c 0,0 652.9,157.3 647.7,211.3 -5.3,54.1 104.2,819.4 80.3,850.3 -23.9,30.8 -307.5,685 -416,697.4 -108.5,12.4 -544.5,-117.9 -544.5,-117.9"
         style="fill:#49263e;fill-opacity:1;fill-rule:nonzero;stroke:none"
         id="path174" /><path
         d="m 18790.6,8478.9 c 0,-499.9 405.3,-905.2 905.2,-905.2 500,0 905.2,405.3 905.2,905.2 0,500 -405.2,905.3 -905.2,905.3 -499.9,0 -905.2,-405.3 -905.2,-905.3"
         style="fill:#49263e;fill-opacity:1;fill-rule:nonzero;stroke:none"
         id="path176" /><path
         d="m 17057.5,6152.4 c 233.4,544.1 476.9,1066.4 582.3,1143.7 230.5,169.1 1751.6,184.4 1751.6,184.4 0,0 1106.3,57.6 1690.2,-44.2 0,0 645.3,-24.9 968,-693.3 82.7,-171.3 176,-378 269,-590.6 h -5261.1"
         style="fill:#3f9896;fill-opacity:1;fill-rule:nonzero;stroke:none"
         id="path178" /><path
         d="m 21375.3,6148.7 -144.1,625.6 32.4,7.5 144.1,-625.7 -32.4,-7.4"
         style="fill:#21111d;fill-opacity:1;fill-rule:nonzero;stroke:none"
         id="path180" /><path
         d="m 18033,6148.7 -32.4,7.4 144.1,625.7 32.4,-7.5 -144.1,-625.6"
         style="fill:#21111d;fill-opacity:1;fill-rule:nonzero;stroke:none"
         id="path182" /><path
         d="m 19669.9,6915.8 v 0 c 179.6,-1.2 323.3,199.7 315.2,440.5 l -21.1,626.4 h -567 l -38.4,-610 c -15.4,-245.1 128.1,-455.7 311.3,-456.9"
         style="fill:#fe9f73;fill-opacity:1;fill-rule:nonzero;stroke:none"
         id="path184" /><path
         d="m 19972.1,7743.6 c -100.3,-246.8 -543.1,-226.6 -589.2,16.3 l 14.1,222.8 h 567 l 8.1,-239.1"
         style="fill:#f07162;fill-opacity:1;fill-rule:nonzero;stroke:none"
         id="path186" /><path
         d="m 19252.3,8931.5 c 27.4,54.9 63.2,91.5 98.2,116 71.2,32.8 187.6,75.3 336.1,91.8 h 7.1 4.2 7.1 c 148.5,-16.5 264.9,-59 336.1,-91.8 35,-24.5 70.8,-61.1 98.2,-116 13.1,-101.3 29,-288.2 32,-474.9 2.7,-167.8 -42.4,-333.7 -134.9,-469.5 -69.7,-102.3 -169.9,-193.9 -308.6,-207.5 -9.6,-0.1 -19.7,-0.2 -29.9,-0.2 v 0 h -2.1 -2.1 v 0 c -10.2,0 -20.3,0.1 -29.9,0.2 -138.7,13.6 -238.9,105.2 -308.6,207.5 -92.5,135.8 -137.6,301.7 -134.9,469.5 3,186.7 19,373.6 32,474.9"
         style="fill:#fe9f73;fill-opacity:1;fill-rule:nonzero;stroke:none"
         id="path188" /><path
         d="m 19335.8,8347.8 c 0,-86.2 -69.8,-156.1 -156,-156.1 -86.2,0 -156,69.9 -156,156.1 0,86.1 69.8,156 156,156 86.2,0 156,-69.9 156,-156"
         style="fill:#fe9f73;fill-opacity:1;fill-rule:nonzero;stroke:none"
         id="path190" /><path
         d="m 19168.2,8251.5 c -32.7,0 -54.6,24.6 -61.8,49.2 -8.5,29 1.3,57.3 24.9,72 33.7,20.9 64.3,8.7 80.9,-1.8 -6.7,16.6 -16.9,28.8 -30.5,36.2 -30.5,16.8 -68.3,4.6 -68.6,4.4 -2.7,-0.8 -5.5,0.6 -6.4,3.2 -0.8,2.6 0.6,5.4 3.2,6.3 1.7,0.6 42.3,13.8 76.6,-5.1 19.9,-10.9 33.4,-30.2 40.2,-57.3 l 4.3,-17.4 -12.7,12.7 c -1.6,1.5 -38.3,37.2 -81.7,10.3 -24,-14.9 -26.1,-42 -20.6,-60.7 5.8,-19.7 23.1,-42.4 53,-42 2.7,0 5.1,-2.2 5.1,-4.9 0,-2.8 -2.2,-5.1 -4.9,-5.1 h -1"
         style="fill:#f07162;fill-opacity:1;fill-rule:nonzero;stroke:none"
         id="path192" /><path
         d="m 20069.7,8347.8 c 0,-86.2 69.9,-156.1 156,-156.1 86.2,0 156,69.9 156,156.1 0,86.1 -69.8,156 -156,156 -86.1,0 -156,-69.9 -156,-156"
         style="fill:#fe9f73;fill-opacity:1;fill-rule:nonzero;stroke:none"
         id="path194" /><path
         d="m 20237.3,8251.5 c 32.7,0 54.6,24.6 61.8,49.2 8.5,29 -1.3,57.3 -24.9,72 -33.7,20.9 -64.3,8.7 -80.9,-1.8 6.7,16.6 16.9,28.8 30.5,36.2 30.5,16.8 68.3,4.6 68.7,4.4 2.6,-0.8 5.4,0.6 6.3,3.2 0.8,2.6 -0.6,5.4 -3.2,6.3 -1.7,0.6 -42.3,13.8 -76.6,-5.1 -19.9,-10.9 -33.4,-30.2 -40.2,-57.3 l -4.3,-17.4 12.7,12.7 c 1.6,1.5 38.3,37.2 81.7,10.3 24,-14.9 26.1,-42 20.6,-60.7 -5.7,-19.7 -23.1,-42.4 -53,-42 -2.7,0 -5,-2.2 -5.1,-4.9 0,-2.8 2.2,-5.1 4.9,-5.1 h 1"
         style="fill:#f07162;fill-opacity:1;fill-rule:nonzero;stroke:none"
         id="path196" /><path
         d="m 19839.9,8447.1 c 0,-17.6 14.3,-31.9 31.9,-31.9 17.6,0 31.8,14.3 31.8,31.9 0,17.6 -14.2,31.8 -31.8,31.8 -17.6,0 -31.9,-14.2 -31.9,-31.8"
         style="fill:#000000;fill-opacity:1;fill-rule:nonzero;stroke:none"
         id="path198" /><path
         d="m 19511.3,8440.9 c 0,-17.6 -14.3,-31.9 -31.9,-31.9 -17.6,0 -31.8,14.3 -31.8,31.9 0,17.6 14.2,31.8 31.8,31.8 17.6,0 31.9,-14.2 31.9,-31.8"
         style="fill:#000000;fill-opacity:1;fill-rule:nonzero;stroke:none"
         id="path200" /><path
         d="m 20135.4,8195.9 c 0,0 -57.3,-422.2 -407.6,-416.3 l 407.6,416.3"
         style="fill:#fe9f73;fill-opacity:1;fill-rule:nonzero;stroke:none"
         id="path202" /><path
         d="m 19248.5,8207.7 c 0,0 57.4,-434 407.6,-428.1 l -257,595 -150.6,-166.9"
         style="fill:#fe9f73;fill-opacity:1;fill-rule:nonzero;stroke:none"
         id="path204" /><path
         d="m 19434.9,8532.9 c 2.4,0 4.8,0.8 6.8,2.5 64.5,54.7 156.7,24.5 157.6,24.2 5.4,-1.8 11.4,1.1 13.2,6.6 1.8,5.4 -1.1,11.3 -6.5,13.2 -4.2,1.4 -104.2,34.3 -177.8,-28.2 -4.4,-3.7 -4.9,-10.3 -1.2,-14.6 2,-2.5 5,-3.7 7.9,-3.7"
         style="fill:#49263e;fill-opacity:1;fill-rule:nonzero;stroke:none"
         id="path206" /><path
         d="m 19956.7,8534.9 c 3,0 6,1.3 8.1,3.9 3.6,4.4 2.9,11 -1.6,14.6 -75.1,60.7 -174.2,25.3 -178.4,23.8 -5.4,-2 -8.1,-8 -6.2,-13.3 2,-5.4 8,-8.2 13.4,-6.3 0.9,0.4 92.3,32.8 158.2,-20.4 1.9,-1.6 4.2,-2.3 6.5,-2.3"
         style="fill:#49263e;fill-opacity:1;fill-rule:nonzero;stroke:none"
         id="path208" /><path
         d="m 19447.6,9086.1 c 0,0 29,-240.9 369.8,-295.2 340.9,-54.2 318,-595 318,-595 0,0 381,-525.2 394.9,-377.1 13.9,148.2 60.2,533.3 0,660.1 -60.2,126.9 -109.2,446.3 -228.2,525 -119,78.7 6.5,44 -209,135.4 -215.5,91.4 -144.7,128.4 -365.3,119.2 -220.5,-9.3 -182.3,9.2 -275.5,-23.2 -93.1,-32.4 -4.7,-149.2 -4.7,-149.2"
         style="fill:#49263e;fill-opacity:1;fill-rule:nonzero;stroke:none"
         id="path210" /><path
         d="m 19423.3,9217.3 c 0,0 82.3,-289 56.1,-363.1 -26.1,-74.1 -258.2,-356 -258.2,-356 0,0 -98.1,180.1 -67.3,260.3 30.9,80.3 -132.7,59.6 -95.6,99.2 37,39.7 351.3,373 351.3,373 l 13.7,-13.4"
         style="fill:#49263e;fill-opacity:1;fill-rule:nonzero;stroke:none"
         id="path212" /><path
         d="m 18929.8,9340.2 c 0,-138.1 111.9,-250 250,-250 138.1,0 250,111.9 250,250 0,138.1 -111.9,250 -250,250 -138.1,0 -250,-111.9 -250,-250"
         style="fill:#49263e;fill-opacity:1;fill-rule:nonzero;stroke:none"
         id="path214" /><path
         d="m 19903.6,9340.2 c 0,-138.1 111.9,-250 250,-250 138.1,0 250,111.9 250,250 0,138.1 -111.9,250 -250,250 -138.1,0 -250,-111.9 -250,-250"
         style="fill:#49263e;fill-opacity:1;fill-rule:nonzero;stroke:none"
         id="path216" /><path
         d="m 20314.9,9113.3 c 6.9,0 13.9,2.7 19,8.2 9.7,10.4 9.3,26.6 -0.9,36.4 l -1.2,1.4 c -39.7,41.7 -187.6,181.4 -423.3,226.4 -14.1,2.8 -27.8,-6.5 -30.5,-20.7 -2.7,-14.1 6.6,-27.7 20.7,-30.4 220.5,-42.2 358.3,-172.3 395.3,-211.2 1.6,-1.6 2.6,-2.7 3.1,-3.1 5,-4.7 11.4,-7 17.8,-7"
         style="fill:#f75553;fill-opacity:1;fill-rule:nonzero;stroke:none"
         id="path218" /><path
         d="m 19040.5,9095.8 c 6.6,0 13.2,2.5 18.3,7.6 0.4,0.4 1.4,1.4 2.9,3.1 35.6,40.2 168.8,175.1 387.7,224.9 14,3.1 22.8,17.1 19.6,31.1 -3.2,14 -17.1,22.9 -31.2,19.6 -234,-53.2 -376.9,-197.9 -415.1,-241 l -1.3,-1.4 c -9.6,-10.5 -9.2,-26.8 1,-36.6 5.1,-4.9 11.6,-7.3 18.1,-7.3"
         style="fill:#f75553;fill-opacity:1;fill-rule:nonzero;stroke:none"
         id="path220" /><path
         d="m 19916.2,8853.4 h -0.4 c -230.3,7.2 -398.1,186.3 -405.2,193.9 -4.1,4.5 -3.8,11.5 0.7,15.6 4.4,4.2 11.5,3.9 15.6,-0.6 1.7,-1.8 168.7,-179.9 389.6,-186.8 6.1,-0.2 10.9,-5.3 10.8,-11.4 -0.2,-6 -5.2,-10.7 -11.1,-10.7"
         style="fill:#21111d;fill-opacity:1;fill-rule:nonzero;stroke:none"
         id="path222" /><path
         d="m 21187.6,7485.7 c -4.5,0 -8.7,2.7 -10.4,7.2 -44.9,120.9 -152.2,200.5 -276.5,292.6 -61.3,45.4 -124.7,92.5 -189.5,150 -284.5,252.6 -280,565.4 -279.9,568.6 0.1,6.1 5,11.3 11.3,10.8 6.1,-0.2 11,-5.3 10.8,-11.4 -0.1,-3 -4,-305.9 272.5,-551.4 64.1,-56.9 127.1,-103.6 188,-148.8 127.1,-94.2 236.8,-175.6 284.1,-302.7 2.1,-5.7 -0.8,-12.1 -6.5,-14.2 -1.3,-0.5 -2.6,-0.7 -3.9,-0.7"
         style="fill:#21111d;fill-opacity:1;fill-rule:nonzero;stroke:none"
         id="path224" /><path
         d="m 19690.2,8242.7 c 2.1,0 4,1.5 4.5,3.6 0.5,2.5 -1,4.9 -3.5,5.5 -29.6,6.3 -48.3,42.7 -53.6,54.6 42,22.5 67.6,51.6 76.2,86.8 13.9,57.3 -22.4,109.1 -23.9,111.3 -1.5,2 -4.4,2.5 -6.4,1.1 -2.1,-1.5 -2.6,-4.4 -1.1,-6.4 0.3,-0.5 35.4,-50.7 22.5,-103.9 -8.2,-33.5 -33.5,-61.3 -75.3,-82.7 l -3.7,-1.9 1.5,-3.8 c 0.9,-2.3 21.8,-55.5 61.9,-64.1 l 0.9,-0.1"
         style="fill:#f07162;fill-opacity:1;fill-rule:nonzero;stroke:none"
         id="path226" /><path
         d="m 19765.2,8143.2 c 14.7,0 28.5,3.3 41.2,9.9 44.2,22.9 60.1,77.1 60.8,79.4 0.8,2.7 -0.8,5.6 -3.6,6.4 -2.8,0.9 -5.6,-0.8 -6.4,-3.6 -0.2,-0.5 -15.4,-52.2 -55.6,-73 -21,-10.8 -45.2,-11.5 -72,-2.2 -2.8,1 -5.7,-0.5 -6.7,-3.2 -0.9,-2.7 0.5,-5.7 3.2,-6.6 13.6,-4.8 26.7,-7.1 39.1,-7.1"
         style="fill:#f07162;fill-opacity:1;fill-rule:nonzero;stroke:none"
         id="path228" /><path
         d="m 18776.3,7012.5 -111.8,185.2 28.4,17.2 111.9,-185.2 -28.5,-17.2"
         style="fill:#21111d;fill-opacity:1;fill-rule:nonzero;stroke:none"
         id="path230" /><path
         d="m 18775.9,6816.7 -155.1,289.1 29.3,15.7 155.1,-289.1 -29.3,-15.7"
         style="fill:#21111d;fill-opacity:1;fill-rule:nonzero;stroke:none"
         id="path232" /><path
         d="m 19788.5,8371.4 c -6.7,0 -6.7,10.4 0,10.4 6.7,0 6.7,-10.4 0,-10.4"
         style="fill:#f07162;fill-opacity:1;fill-rule:nonzero;stroke:none"
         id="path234" /><path
         d="m 19831.3,8335.6 c -6.7,0 -6.7,10.4 0,10.4 6.7,0 6.7,-10.4 0,-10.4"
         style="fill:#f07162;fill-opacity:1;fill-rule:nonzero;stroke:none"
         id="path236" /><path
         d="m 19765.4,8310.1 c -6.7,0 -6.8,10.4 0,10.4 6.7,0 6.7,-10.4 0,-10.4"
         style="fill:#f07162;fill-opacity:1;fill-rule:nonzero;stroke:none"
         id="path238" /><path
         d="m 19895,8363.3 c -6.7,0 -6.7,10.4 0,10.4 6.7,0 6.7,-10.4 0,-10.4"
         style="fill:#f07162;fill-opacity:1;fill-rule:nonzero;stroke:none"
         id="path240" /><path
         d="m 19964.4,8307.8 c -6.7,0 -6.7,10.4 0,10.4 6.7,0 6.7,-10.4 0,-10.4"
         style="fill:#f07162;fill-opacity:1;fill-rule:nonzero;stroke:none"
         id="path242" /><path
         d="m 19991,8387.6 c -6.7,0 -6.7,10.4 0,10.4 6.7,0 6.7,-10.4 0,-10.4"
         style="fill:#f07162;fill-opacity:1;fill-rule:nonzero;stroke:none"
         id="path244" /><path
         d="m 19591.8,8379.5 c -6.7,0 -6.8,10.5 0,10.5 6.7,0 6.7,-10.5 0,-10.5"
         style="fill:#f07162;fill-opacity:1;fill-rule:nonzero;stroke:none"
         id="path246" /><path
         d="m 19535.1,8312.4 c -6.7,0 -6.8,10.4 0,10.4 6.7,0 6.7,-10.4 0,-10.4"
         style="fill:#f07162;fill-opacity:1;fill-rule:nonzero;stroke:none"
         id="path248" /><path
         d="m 19498,8352.9 c -6.7,0 -6.7,10.4 0,10.4 6.7,0 6.7,-10.4 0,-10.4"
         style="fill:#f07162;fill-opacity:1;fill-rule:nonzero;stroke:none"
         id="path250" /><path
         d="m 19465.6,8326.3 c -6.7,0 -6.7,10.4 0,10.4 6.7,0 6.7,-10.4 0,-10.4"
         style="fill:#f07162;fill-opacity:1;fill-rule:nonzero;stroke:none"
         id="path252" /><path
         d="m 19396.2,8387.6 c -6.7,0 -6.7,10.4 0,10.4 6.7,0 6.7,-10.4 0,-10.4"
         style="fill:#f07162;fill-opacity:1;fill-rule:nonzero;stroke:none"
         id="path254" /><path
         d="m 19356.8,8317 h -1.1 l -2,0.5 -1.7,1.1 -1.1,1.6 -0.4,2 0.2,1.4 1.3,2.3 1,0.8 c 0.9,0.5 1.7,0.8 2.7,0.8 h 1.1 l 2,-0.5 1.7,-1.1 1.1,-1.6 0.5,-2.1 -0.2,-1.3 -1.4,-2.3 -1,-0.8 c -0.8,-0.5 -1.7,-0.8 -2.7,-0.8"
         style="fill:#f07162;fill-opacity:1;fill-rule:nonzero;stroke:none"
         id="path256" /><path
         d="m 19331.2,8382.2 -1.2,1.2 -1.1,1.6 -0.4,2.1 0.4,2 1.1,1.6 1.1,0.9 c 0.8,0.4 1.7,0.7 2.6,0.7 l 1.4,-0.2 2.3,-1.4 1.1,-1.1 1.1,-1.7 0.5,-2 -0.5,-2 -1.1,-1.7 -1,-0.8 c -0.8,-0.5 -1.7,-0.7 -2.6,-0.7 l -1.4,0.2 -2.3,1.3"
         style="fill:#f07162;fill-opacity:1;fill-rule:nonzero;stroke:none"
         id="path258" /><path
         d="M 22441.1,5713.6 H 9038.33 v 475.1 H 22441.1 v -475.1"
         style="fill:#21111d;fill-opacity:1;fill-rule:nonzero;stroke:none"
         id="path260" /><path
         d="m 20997.8,10150.7 c -224.9,524.6 -459.7,1028.1 -561.3,1102.6 -222.2,162.9 -1688.6,177.7 -1688.6,177.7 0,0 -1066.5,55.6 -1629.3,-42.5 0,0 -622.2,-24.1 -933.2,-668.4 -79.7,-165.2 -169.7,-364.4 -259.4,-569.4 h 5071.8"
         style="fill:#61a3c5;fill-opacity:1;fill-rule:nonzero;stroke:none"
         id="path262" /><path
         d="m 16836,10147 -32.4,7.4 138.9,603.1 32.4,-7.4 -138.9,-603.1"
         style="fill:#21111d;fill-opacity:1;fill-rule:nonzero;stroke:none"
         id="path264" /><path
         d="m 20056.9,10147 -138.9,603.1 32.4,7.4 138.9,-603.1 -32.4,-7.4"
         style="fill:#21111d;fill-opacity:1;fill-rule:nonzero;stroke:none"
         id="path266" /><path
         d="m 18479.4,10886.7 v 0 c -173.1,-1.2 -311.6,192.4 -303.8,424.6 l 20.3,603.9 h 546.7 l 37,-588.1 c 14.8,-236.2 -123.5,-439.3 -300.2,-440.4"
         style="fill:#fe9f73;fill-opacity:1;fill-rule:nonzero;stroke:none"
         id="path268" /><path
         d="m 18188.2,11684.6 c 96.7,-237.9 523.4,-218.4 567.9,15.8 l -13.5,214.8 h -546.7 l -7.7,-230.6"
         style="fill:#f07162;fill-opacity:1;fill-rule:nonzero;stroke:none"
         id="path270" /><path
         d="m 18882,12829.8 c -26.4,53 -60.9,88.3 -94.7,111.9 -68.6,31.5 -180.8,72.5 -323.9,88.5 h -6.9 -4 -6.9 c -143.1,-16 -255.4,-57 -324,-88.5 -33.7,-23.6 -68.2,-58.9 -94.7,-111.9 -12.5,-97.6 -27.9,-277.8 -30.8,-457.8 -2.6,-161.8 40.9,-321.7 130.1,-452.6 67.2,-98.6 163.8,-187 297.4,-200 9.3,-0.1 19,-0.2 28.9,-0.2 v -0.1 l 2,0.1 2,-0.1 v 0.1 c 9.9,0 19.5,0.1 28.9,0.2 133.6,13 230.2,101.4 297.4,200 89.2,130.9 132.6,290.8 130.1,452.6 -2.9,180 -18.3,360.2 -30.9,457.8"
         style="fill:#fe9f73;fill-opacity:1;fill-rule:nonzero;stroke:none"
         id="path272" /><path
         d="m 18801.5,12267.1 c 0,-83.1 67.4,-150.4 150.4,-150.4 83.1,0 150.4,67.3 150.4,150.4 0,83.1 -67.3,150.4 -150.4,150.4 -83,0 -150.4,-67.3 -150.4,-150.4"
         style="fill:#fe9f73;fill-opacity:1;fill-rule:nonzero;stroke:none"
         id="path274" /><path
         d="m 18963.1,12174.3 c 31.5,0 52.6,23.7 59.6,47.4 8.2,28 -1.2,55.3 -24,69.4 -32.5,20.2 -62,8.4 -78,-1.7 6.4,16 16.3,27.7 29.4,34.9 29.4,16.2 65.8,4.4 66.2,4.3 2.5,-0.9 5.2,0.5 6.1,3 0.8,2.5 -0.6,5.3 -3.1,6.1 -1.6,0.6 -40.7,13.3 -73.9,-4.9 -19.1,-10.5 -32.1,-29.1 -38.7,-55.2 l -4.1,-16.8 12.2,12.2 c 1.5,1.5 37,35.9 78.8,9.9 23.1,-14.3 25.1,-40.5 19.8,-58.5 -5.5,-19 -22.2,-40.8 -51.1,-40.5 -2.6,0.1 -4.8,-2.1 -4.9,-4.7 0,-2.7 2.1,-4.9 4.8,-4.9 h 0.9"
         style="fill:#f07162;fill-opacity:1;fill-rule:nonzero;stroke:none"
         id="path276" /><path
         d="m 18094,12267.1 c 0,-83.1 -67.3,-150.4 -150.4,-150.4 -83,0 -150.4,67.3 -150.4,150.4 0,83.1 67.4,150.4 150.4,150.4 83.1,0 150.4,-67.3 150.4,-150.4"
         style="fill:#fe9f73;fill-opacity:1;fill-rule:nonzero;stroke:none"
         id="path278" /><path
         d="m 17932.5,12174.3 c -31.6,0 -52.7,23.7 -59.6,47.4 -8.2,28 1.2,55.3 24,69.4 32.5,20.2 62,8.4 78,-1.7 -6.5,16 -16.3,27.7 -29.4,34.9 -29.5,16.2 -65.8,4.4 -66.2,4.3 -2.5,-0.9 -5.2,0.5 -6.1,3 -0.8,2.5 0.5,5.3 3.1,6.1 1.6,0.6 40.7,13.3 73.8,-4.9 19.2,-10.5 32.2,-29.1 38.7,-55.2 l 4.2,-16.8 -12.3,12.2 c -1.4,1.5 -36.9,35.9 -78.7,9.9 -23.1,-14.3 -25.1,-40.5 -19.9,-58.5 5.6,-19 22.3,-40.8 51.2,-40.5 2.6,0.1 4.8,-2.1 4.8,-4.7 0.1,-2.7 -2,-4.9 -4.7,-4.9 h -0.9"
         style="fill:#f07162;fill-opacity:1;fill-rule:nonzero;stroke:none"
         id="path280" /><path
         d="m 18315.6,12362.8 c 0,-16.9 -13.8,-30.7 -30.7,-30.7 -17,0 -30.7,13.8 -30.7,30.7 0,17 13.7,30.7 30.7,30.7 16.9,0 30.7,-13.7 30.7,-30.7"
         style="fill:#000000;fill-opacity:1;fill-rule:nonzero;stroke:none"
         id="path282" /><path
         d="m 18632.4,12356.8 c 0,-16.9 13.7,-30.7 30.7,-30.7 16.9,0 30.7,13.8 30.7,30.7 0,17 -13.8,30.7 -30.7,30.7 -17,0 -30.7,-13.7 -30.7,-30.7"
         style="fill:#000000;fill-opacity:1;fill-rule:nonzero;stroke:none"
         id="path284" /><path
         d="m 18789.8,12410.1 c -5.7,0 -11.4,1.9 -16.1,5.9 -71.9,61 -176.1,27.2 -177.1,26.8 -13.1,-4.3 -27.3,2.7 -31.7,15.8 -4.4,13 2.6,27.2 15.6,31.6 5.4,1.8 131.8,43.5 225.5,-36.1 10.5,-8.9 11.8,-24.7 2.9,-35.2 -4.9,-5.8 -12,-8.8 -19.1,-8.8"
         style="fill:#000000;fill-opacity:1;fill-rule:nonzero;stroke:none"
         id="path286" /><path
         d="m 18163.7,12412.5 c -7.2,0 -14.5,3.2 -19.4,9.3 -8.7,10.7 -7,26.5 3.7,35.1 95.7,77.2 221,32.5 226.3,30.6 12.9,-4.8 19.6,-19.1 14.8,-32.1 -4.7,-12.9 -19.1,-19.6 -32,-14.8 -1,0.3 -104.3,36.7 -177.7,-22.6 -4.6,-3.7 -10.1,-5.5 -15.7,-5.5"
         style="fill:#000000;fill-opacity:1;fill-rule:nonzero;stroke:none"
         id="path288" /><path
         d="m 18030.7,12120.7 c 0,0 55.3,-407 392.9,-401.3 l -392.9,401.3"
         style="fill:#fe9f73;fill-opacity:1;fill-rule:nonzero;stroke:none"
         id="path290" /><path
         d="m 18885.7,12132 c 0,0 -55.3,-418.3 -393,-412.6 l 247.8,573.5 145.2,-160.9"
         style="fill:#fe9f73;fill-opacity:1;fill-rule:nonzero;stroke:none"
         id="path292" /><path
         d="m 18508.7,12138.5 -0.8,0.1 -116.4,10.7 25.7,278.9 c 0.5,4.6 4.5,7.9 9.1,7.6 4.5,-0.5 7.9,-4.5 7.5,-9.1 l -24.3,-262.3 99.9,-9.3 c 4.6,-0.4 8,-4.4 7.5,-9 -0.4,-4.3 -4,-7.6 -8.2,-7.6"
         style="fill:#f07162;fill-opacity:1;fill-rule:nonzero;stroke:none"
         id="path294" /><path
         d="m 18663.1,13065.7 c -272.4,181.3 -578.1,192.5 -719.5,48.6 -153.6,-156.5 -49.9,-566.9 16.9,-613.2 66.7,-46.3 51.4,409.3 57.3,413 5.9,3.7 405.8,-26 405.8,-26 l 239.5,177.6"
         style="fill:#000000;fill-opacity:1;fill-rule:nonzero;stroke:none"
         id="path296" /><path
         d="m 18632.4,13062.3 c 12.4,1.9 189.4,35.2 304,-1.9 125.9,-40.7 109.9,-320.9 93.5,-396.1 -34.2,-157.1 -57.5,-246.8 -57.5,-246.8 0,0 -99.2,291.2 -119.9,357.9 -20.7,66.6 -220.1,286.9 -220.1,286.9"
         style="fill:#000000;fill-opacity:1;fill-rule:nonzero;stroke:none"
         id="path298" /><path
         d="m 18357,12065.2 c 2.9,0.5 186.1,4.5 186.1,4.5 0,0 -23.2,-75.7 -91.2,-77.4 -68.1,-1.6 -94.9,72.9 -94.9,72.9"
         style="fill:#fbfdfc;fill-opacity:1;fill-rule:nonzero;stroke:none"
         id="path300" /><path
         d="m 18446,10782.1 c -369.6,10.5 -391,511.8 -391.1,516.9 l 33.2,1.1 c 0.2,-4.7 20.5,-475.2 358.8,-484.8 l -0.9,-33.2"
         style="fill:#21111d;fill-opacity:1;fill-rule:nonzero;stroke:none"
         id="path302" /><path
         d="m 17879.4,12708.3 40.2,-292.7 c 0,0 53.5,3.6 77.2,-7.8 0,0 -1.7,410.8 97.2,428.7 99,17.8 253.1,-74.4 356,-20.8 102.9,53.5 154,189.4 154,189.4 0,0 -4.6,-162.7 85.2,-216.2 89.8,-53.6 181.3,-395.4 181.3,-395.4 0,0 33.3,20.1 57.4,22.1 0,0 -56.6,409 -68.5,432.8 -11.9,23.8 -259.1,206.5 -259.1,206.5 0,0 -125,7.5 -209.6,13.5 -84.7,6.1 -252.8,17.8 -296.7,0 -43.8,-17.7 -136.1,-11.8 -136.1,-68.3 0,-56.5 -40.5,-44.6 -14.3,-110.1 26.2,-65.4 -64.2,-181.7 -64.2,-181.7"
         style="fill:#000000;fill-opacity:1;fill-rule:nonzero;stroke:none"
         id="path304" /><path
         d="m 18567.5,13077.8 17.5,36.5 c 0,0 65,-43.6 216.5,-36.5 151.6,7.1 153.8,-463 150.4,-471.9 -3.3,-8.9 20.5,-188.4 20.5,-188.4 0,0 -44.7,10.6 -101.9,-24 0,0 -70.6,426.6 -79.6,460.8 -8.9,34.2 -223.4,223.5 -223.4,223.5"
         style="fill:#000000;fill-opacity:1;fill-rule:nonzero;stroke:none"
         id="path306" /><path
         d="m 8944.99,10060.7 v 128.1 H 22413 v -128.1 H 8944.99"
         style="fill:#21111d;fill-opacity:1;fill-rule:nonzero;stroke:none"
         id="path308" /><path
         d="m 18161.8,7980.2 h -1857.9 c -104.9,0 -189.9,85 -189.9,189.8 v 925.6 c 0,104.9 85,189.9 189.9,189.9 h 1857.9 c 104.8,0 189.8,-85 189.8,-189.9 V 8170 c 0,-104.8 -85,-189.8 -189.8,-189.8"
         style="fill:#f3fffe;fill-opacity:1;fill-rule:nonzero;stroke:none"
         id="path310" /><path
         d="m 18307,8527.4 282.7,-349 -407.8,147.3 z"
         style="fill:#f3fffe;fill-opacity:1;fill-rule:nonzero;stroke:none"
         id="path312" /><path
         d="m 19684.9,11970.9 h 2242.5 c 104.8,0 189.8,85 189.8,189.8 v 1150 c 0,104.8 -85,189.8 -189.8,189.8 h -2242.5 c -104.9,0 -189.9,-85 -189.9,-189.8 v -1150 c 0,-104.8 85,-189.8 189.9,-189.8"
         style="fill:#f3fffe;fill-opacity:1;fill-rule:nonzero;stroke:none"
         id="path314" /><path
         d="m 6801.82,12089.6 c -311.2,0 -563.48,252.3 -563.48,563.5 0,311.1 252.28,563.4 563.48,563.4 311.2,0 563.48,-252.3 563.48,-563.4 0,-311.2 -252.28,-563.5 -563.48,-563.5"
         style="fill:#aad1e2;fill-opacity:1;fill-rule:nonzero;stroke:none"
         id="path316" /><path
         d="m 6801.82,10391.7 c -311.2,0 -563.48,252.3 -563.48,563.5 0,311.2 252.28,563.5 563.48,563.5 311.2,0 563.48,-252.3 563.48,-563.5 0,-311.2 -252.28,-563.5 -563.48,-563.5"
         style="fill:#aad1e2;fill-opacity:1;fill-rule:nonzero;stroke:none"
         id="path318" /><path
         d="m 6801.82,8693.8 c -311.2,0 -563.48,252.3 -563.48,563.5 0,311.2 252.28,563.5 563.48,563.5 311.2,0 563.48,-252.3 563.48,-563.5 0,-311.2 -252.28,-563.5 -563.48,-563.5"
         style="fill:#aad1e2;fill-opacity:1;fill-rule:nonzero;stroke:none"
         id="path320" /><path
         d="m 6801.82,6996 c -311.2,0 -563.48,252.3 -563.48,563.5 0,311.1 252.28,563.4 563.48,563.4 311.2,0 563.48,-252.3 563.48,-563.4 0,-311.2 -252.28,-563.5 -563.48,-563.5"
         style="fill:#aad1e2;fill-opacity:1;fill-rule:nonzero;stroke:none"
         id="path322" /><path
         d="M 8614.67,12406.4 H 7496.42 c -21.43,0 -38.79,17.4 -38.79,38.8 0,21.4 17.36,38.8 38.79,38.8 h 1118.25 c 21.42,0 38.79,-17.4 38.79,-38.8 0,-21.4 -17.37,-38.8 -38.79,-38.8"
         style="fill:#aad1e2;fill-opacity:1;fill-rule:nonzero;stroke:none"
         id="path324" /><path
         d="m 8279.69,12666.9 h -783.27 c -21.43,0 -38.79,17.4 -38.79,38.8 0,21.4 17.36,38.8 38.79,38.8 h 783.27 c 21.42,0 38.79,-17.4 38.79,-38.8 0,-21.4 -17.37,-38.8 -38.79,-38.8"
         style="fill:#aad1e2;fill-opacity:1;fill-rule:nonzero;stroke:none"
         id="path326" /><path
         d="M 8614.67,10759.9 H 7496.42 c -21.43,0 -38.79,17.3 -38.79,38.8 0,21.4 17.36,38.7 38.79,38.7 h 1118.25 c 21.42,0 38.79,-17.3 38.79,-38.7 0,-21.5 -17.37,-38.8 -38.79,-38.8"
         style="fill:#aad1e2;fill-opacity:1;fill-rule:nonzero;stroke:none"
         id="path328" /><path
         d="m 8279.69,11020.4 h -783.27 c -21.43,0 -38.79,17.3 -38.79,38.8 0,21.4 17.36,38.7 38.79,38.7 h 783.27 c 21.42,0 38.79,-17.3 38.79,-38.7 0,-21.5 -17.37,-38.8 -38.79,-38.8"
         style="fill:#aad1e2;fill-opacity:1;fill-rule:nonzero;stroke:none"
         id="path330" /><path
         d="M 8614.67,9113.3 H 7496.42 c -21.43,0 -38.79,17.4 -38.79,38.8 0,21.4 17.36,38.8 38.79,38.8 h 1118.25 c 21.42,0 38.79,-17.4 38.79,-38.8 0,-21.4 -17.37,-38.8 -38.79,-38.8"
         style="fill:#aad1e2;fill-opacity:1;fill-rule:nonzero;stroke:none"
         id="path332" /><path
         d="m 8279.69,9373.8 h -783.27 c -21.43,0 -38.79,17.4 -38.79,38.8 0,21.5 17.36,38.8 38.79,38.8 h 783.27 c 21.42,0 38.79,-17.3 38.79,-38.8 0,-21.4 -17.37,-38.8 -38.79,-38.8"
         style="fill:#aad1e2;fill-opacity:1;fill-rule:nonzero;stroke:none"
         id="path334" /><path
         d="M 8614.67,7466.8 H 7496.42 c -21.43,0 -38.79,17.4 -38.79,38.8 0,21.4 17.36,38.8 38.79,38.8 h 1118.25 c 21.42,0 38.79,-17.4 38.79,-38.8 0,-21.4 -17.37,-38.8 -38.79,-38.8"
         style="fill:#aad1e2;fill-opacity:1;fill-rule:nonzero;stroke:none"
         id="path336" /><path
         d="m 8279.69,7727.3 h -783.27 c -21.43,0 -38.79,17.4 -38.79,38.8 0,21.4 17.36,38.8 38.79,38.8 h 783.27 c 21.42,0 38.79,-17.4 38.79,-38.8 0,-21.4 -17.37,-38.8 -38.79,-38.8"
         style="fill:#aad1e2;fill-opacity:1;fill-rule:nonzero;stroke:none"
         id="path338" /><path
         d="m 13166.1,8957.2 -275.6,-220.4 337.8,44.6 z"
         style="fill:#f3fffe;fill-opacity:1;fill-rule:nonzero;stroke:none"
         id="path340" /><path
         d="M 15236.3,8372.9 H 13297 c -104.8,0 -189.8,85 -189.8,189.8 v 973.1 c 0,104.8 85,189.8 189.8,189.8 h 1939.3 c 104.9,0 189.9,-85 189.9,-189.8 v -973.1 c 0,-104.8 -85,-189.8 -189.9,-189.8"
         style="fill:#f3fffe;fill-opacity:1;fill-rule:nonzero;stroke:none"
         id="path342" /><path
         d="m 11544.4,12734.4 275.6,-220.4 -337.8,44.6 z"
         style="fill:#f3fffe;fill-opacity:1;fill-rule:nonzero;stroke:none"
         id="path344" /><path
         d="m 9474.17,12150 h 1939.23 c 104.9,0 189.9,85.1 189.9,189.9 v 973.1 c 0,104.8 -85,189.8 -189.9,189.8 H 9474.17 c -104.86,0 -189.86,-85 -189.86,-189.8 v -973.1 c 0,-104.8 85,-189.9 189.86,-189.9"
         style="fill:#f3fffe;fill-opacity:1;fill-rule:nonzero;stroke:none"
         id="path346" /><path
         d="m 19588.4,12822.3 -328,-242.2 392,36.5 z"
         style="fill:#f3fffe;fill-opacity:1;fill-rule:nonzero;stroke:none"
         id="path348" /><path
         d="m 7670.42,7499.5 c 0,0 -120.95,1686.1 -775.49,1358.8 C 6240.39,8531.1 5706.8,6382.5 5635.65,6318.4 c -71.14,-64 -49.8,-2027.6 -49.8,-2027.6 l 761.26,384.1 c 0,0 202.54,4693.5 1323.31,2824.6"
         style="fill:#258d8c;fill-opacity:1;fill-rule:nonzero;stroke:none"
         id="path350" /><path
         d="m 6936.88,10990.6 c 0,0 -1466.65,-1312.3 -1866.84,-3562.3 -400.19,-2250 864.42,-2912.2 864.42,-2912.2 0,0 179.95,4731 1002.42,6474.5"
         style="fill:#7fc6a6;fill-opacity:1;fill-rule:nonzero;stroke:none"
         id="path352" /><path
         d="m 4216.29,4212.5 c 0,0 -245.45,4789.8 -1483.38,6866.4 0,0 2173.33,-1296.6 2893.95,-4699.9 40.57,-191.6 64.64,-404.5 95.36,-609.6 31.95,-213.4 51.02,-402.4 46.14,-591 -8.62,-333.2 -54.84,-619.6 -68.43,-830.1 C 5582.55,2529.9 4216.29,4212.5 4216.29,4212.5"
         style="fill:#258d8c;fill-opacity:1;fill-rule:nonzero;stroke:none"
         id="path354" /><path
         d="m 4258.24,6246.4 c -84.23,682.9 -343.51,1333.8 -760.21,1881.4 -301.02,395.5 -649.51,696 -921.64,481.5 C 1971.65,8132.7 1850.7,5173 1850.7,5173 c 0,0 683,2049 981.81,1913.8 298.81,-135.2 576.28,-2917 576.28,-2917 l 1116.99,-92.4 -267.54,2169"
         style="fill:#7fc6a6;fill-opacity:1;fill-rule:nonzero;stroke:none"
         id="path356" /><path
         d="m 5781.77,4379.7 c 45.85,1045.7 -85.29,2049.4 -389.8,2983.1 -243.64,747.1 -598.15,1451.3 -1053.69,2093 -775.78,1092.9 -1587.34,1632.9 -1595.45,1638.2 l -19.85,-30.2 c 8.06,-5.3 814.89,-542.4 1586.75,-1630.2 712.12,-1003.7 1539.3,-2694.9 1435.92,-5052.3 l 36.12,-1.6"
         style="fill:#21111d;fill-opacity:1;fill-rule:nonzero;stroke:none"
         id="path358" /><path
         d="m 5952.53,4515.5 c 0.44,11.8 46.66,1198.3 192.71,2582.4 134.71,1276.5 384.22,2986.7 807.99,3884.9 l -32.7,15.5 C 6494.59,10095.4 6244.27,8380.8 6109.27,7101.5 5963.1,5716.2 5916.85,4528.7 5916.4,4516.8 l 36.13,-1.3"
         style="fill:#21111d;fill-opacity:1;fill-rule:nonzero;stroke:none"
         id="path360" /><path
         d="m 6365.17,4674.1 c 0.33,7.7 34.7,779.1 148.05,1560.8 149.05,1027.8 364.46,1606.1 622.95,1672.4 152.63,39.1 327.15,-101.3 518.8,-417.2 l 30.9,18.7 c -200.87,331.2 -388.83,477 -558.68,433.5 -277.69,-71.2 -496.31,-644 -649.78,-1702.5 -113.6,-783.4 -148.03,-1556.4 -148.36,-1564.1 l 36.12,-1.6"
         style="fill:#21111d;fill-opacity:1;fill-rule:nonzero;stroke:none"
         id="path362" /><path
         d="m 4507.84,4075.1 35.88,4.5 -267.54,2169 c -85.37,692.2 -349.48,1345.7 -763.77,1890.1 -262.32,344.7 -495.32,532.1 -692.52,557.2 -93.12,11.8 -178.8,-12.5 -254.69,-72.4 C 2310.58,8422.8 2109.93,7780.6 1968.85,6714.8 1864.12,5923.6 1832.94,5181.1 1832.64,5173.7 l 36.12,-1.4 c 1.21,29.5 127.48,2956.7 718.81,3422.8 68.01,53.6 144.64,75.4 227.76,64.9 187.23,-23.8 412.09,-206.5 668.31,-543.2 410.42,-539.3 672.07,-1186.8 756.66,-1872.6 l 267.54,-2169.1"
         style="fill:#21111d;fill-opacity:1;fill-rule:nonzero;stroke:none"
         id="path364" /><path
         d="m 3549.25,6278.6 32.12,16.6 -234.78,454.8 -32.12,-16.5 234.78,-454.9"
         style="fill:#21111d;fill-opacity:1;fill-rule:nonzero;stroke:none"
         id="path366" /><path
         d="m 3549.48,5999.9 31.66,17.4 -234.78,426 -31.66,-17.4 234.78,-426"
         style="fill:#21111d;fill-opacity:1;fill-rule:nonzero;stroke:none"
         id="path368" /><path
         d="m 5780.16,9007.4 200.61,440.4 -32.89,15 -200.62,-440.4 32.9,-15"
         style="fill:#21111d;fill-opacity:1;fill-rule:nonzero;stroke:none"
         id="path370" /><path
         d="m 5779.52,8792.7 170.75,308.1 -31.62,17.5 -170.75,-308.1 31.62,-17.5"
         style="fill:#21111d;fill-opacity:1;fill-rule:nonzero;stroke:none"
         id="path372" /><path
         d="m 6743.06,8490.5 341.5,174.1 -16.42,32.2 -341.5,-174 16.42,-32.3"
         style="fill:#21111d;fill-opacity:1;fill-rule:nonzero;stroke:none"
         id="path374" /><path
         d="m 6744.24,8342.9 202.04,122.9 -18.79,30.9 -202.03,-122.9 18.78,-30.9"
         style="fill:#21111d;fill-opacity:1;fill-rule:nonzero;stroke:none"
         id="path376" /><path
         d="m 6734.85,4796.7 c 0,0 -63.74,-3501.7 -1001.63,-3419.5 H 4995.69 4877.28 4139.75 C 3201.86,1295 3138.12,4796.7 3138.12,4796.7 c 887.53,134.1 2709.2,134.1 3596.73,0"
         style="fill:#f75553;fill-opacity:1;fill-rule:nonzero;stroke:none"
         id="path378" /><path
         d="m 4512.66,3241.4 26.24,24.8 -1024.95,1082.1 -26.25,-24.8 1024.96,-1082.1"
         style="fill:#21111d;fill-opacity:1;fill-rule:nonzero;stroke:none"
         id="path380" /><path
         d="m 4352.29,2978.7 27.27,23.7 -564.19,648.8 -27.28,-23.7 564.2,-648.8"
         style="fill:#21111d;fill-opacity:1;fill-rule:nonzero;stroke:none"
         id="path382" /><path
         d="M 8723.75,4228.6 H 7742.54 L 7988.26,1335 h 1487.76 l 219.49,2893.6 h -971.76"
         style="fill:#61a3c5;fill-opacity:1;fill-rule:nonzero;stroke:none"
         id="path384" /><path
         d="M 9436.15,4736.2 H 8001.9 c -83.39,0 -151.01,-68.2 -151.01,-152.3 h 863.42 9.44 863.41 c 0,84.1 -67.61,152.3 -151.01,152.3"
         style="fill:#21111d;fill-opacity:1;fill-rule:nonzero;stroke:none"
         id="path386" /><path
         d="m 9673.88,4505.8 c -9.54,45.5 -49.37,78.1 -95.51,78.1 h -854.62 -9.44 -854.63 c -46.14,0 -85.97,-32.6 -95.51,-78.1 l -81.03,-386.9 c -12.82,-61.2 33.48,-118.8 95.51,-118.8 h 935.66 9.44 935.65 c 62.03,0 108.33,57.6 95.51,118.8 l -81.03,386.9"
         style="fill:#44243d;fill-opacity:1;fill-rule:nonzero;stroke:none"
         id="path388" /><path
         d="M 7790.59,3340.2 7854.21,2164 h 1729.63 l 63.62,1176.2 h -922.42 -12.03 -922.42"
         style="fill:#fec786;fill-opacity:1;fill-rule:nonzero;stroke:none"
         id="path390" /><path
         d="m 9223.36,2752.1 c 0,-254.4 -204.52,-460.7 -456.81,-460.7 -252.29,0 -456.8,206.3 -456.8,460.7 0,254.4 204.51,460.7 456.8,460.7 252.29,0 456.81,-206.3 456.81,-460.7"
         style="fill:#f3fffe;fill-opacity:1;fill-rule:nonzero;stroke:none"
         id="path392" /><path
         d="M 9583.84,2147.4 H 7838.47 l -64.49,1191.9 33.22,1.8 62.77,-1160.5 h 1713.87 v -33.2"
         style="fill:#21111d;fill-opacity:1;fill-rule:nonzero;stroke:none"
         id="path394" /><path
         d="m 9194.08,3637.4 -28.92,16.4 166.93,294.6 28.92,-16.4 -166.93,-294.6"
         style="fill:#21111d;fill-opacity:1;fill-rule:nonzero;stroke:none"
         id="path396" /><path
         d="m 9221.96,3468 -28.75,16.8 151.01,259.4 28.75,-16.7 -151.01,-259.5"
         style="fill:#21111d;fill-opacity:1;fill-rule:nonzero;stroke:none"
         id="path398" /><path
         d="m 19248.9,2205.6 h 4877 v 927.301 h -4877 z"
         style="fill:#f75553;fill-opacity:1;fill-rule:nonzero;stroke:none"
         id="path400" /><path
         d="m 20132.9,2205.6 h -333.1 v 927.3 h 333.1 v -927.3"
         style="fill:#e24444;fill-opacity:1;fill-rule:nonzero;stroke:none"
         id="path402" /><path
         d="m 23601,2205.6 h -333.1 v 927.3 h 333.1 v -927.3"
         style="fill:#e24444;fill-opacity:1;fill-rule:nonzero;stroke:none"
         id="path404" /><path
         d="m 22379.7,2673.9 -28.7,55.1 377.5,196.4 28.6,-55.1 -377.4,-196.4"
         style="fill:#21111d;fill-opacity:1;fill-rule:nonzero;stroke:none"
         id="path406" /><path
         d="m 22623.6,2592.5 -30.5,54.1 399,224.1 30.4,-54.2 -398.9,-224"
         style="fill:#21111d;fill-opacity:1;fill-rule:nonzero;stroke:none"
         id="path408" /><path
         d="m 17246,1380.5 h 6392.6 v 825.102 H 17246 Z"
         style="fill:#61a3c5;fill-opacity:1;fill-rule:nonzero;stroke:none"
         id="path410" /><path
         d="m 17968.1,1380.5 h 436.598 v 825.102 H 17968.1 Z"
         style="fill:#256898;fill-opacity:1;fill-rule:nonzero;stroke:none"
         id="path412" /><path
         d="m 22614.2,1380.5 h 436.703 v 825.102 H 22614.2 Z"
         style="fill:#256898;fill-opacity:1;fill-rule:nonzero;stroke:none"
         id="path414" /><path
         d="m 18606,1675.5 -28.7,76.4 377.5,272.2 28.7,-76.4 -377.5,-272.2"
         style="fill:#21111d;fill-opacity:1;fill-rule:nonzero;stroke:none"
         id="path416" /><path
         d="m 18849.9,1562.7 -30.4,75 398.9,310.5 30.5,-75.1 -399,-310.4"
         style="fill:#21111d;fill-opacity:1;fill-rule:nonzero;stroke:none"
         id="path418" /><path
         d="M 24457.4,1305.1 H 2049.24 v 70.6 H 24457.4 v -70.6"
         style="fill:#21111d;fill-opacity:1;fill-rule:nonzero;stroke:none"
         id="path420" /></g></g></svg>
