<svg width="21" height="21" viewBox="0 0 21 21" fill="none" xmlns="http://www.w3.org/2000/svg">
<path d="M4.66667 9.45H7V11.55H4.66667V9.45ZM18.6667 2.1H17.5V0H15.1667V2.1H5.83333V0H3.5V2.1H2.33333C1.03833 2.1 0.0116667 3.045 0.0116667 4.2L0 18.9C0 19.457 0.245833 19.9911 0.683417 20.3849C1.121 20.7787 1.71449 21 2.33333 21H18.6667C19.95 21 21 20.055 21 18.9V4.2C21 3.045 19.95 2.1 18.6667 2.1ZM18.6667 18.9H2.33333V8.4H18.6667V18.9ZM18.6667 6.3H2.33333V4.2H18.6667V6.3ZM14 9.45H16.3333V11.55H14V9.45ZM9.33333 9.45H11.6667V11.55H9.33333V9.45Z" fill="#D0D0D5"/>
</svg>
